<svg width="371" height="216" viewBox="0 0 371 216" fill="none" xmlns="http://www.w3.org/2000/svg">
<path d="M0 0H123.5C149.181 0 170 20.8188 170 46.5C170 72.1812 149.181 93 123.5 93H52C23.2812 93 0 69.7188 0 41V0Z" fill="black"/>
<path d="M0 175C0 146.281 23.2812 123 52 123H123.5C149.181 123 170 143.819 170 169.5C170 195.181 149.181 216 123.5 216H0V175Z" fill="black"/>
<path d="M200 46.5C200 20.8188 220.819 0 246.5 0H371V41C371 69.7188 347.719 93 319 93H246.5C220.819 93 200 72.1812 200 46.5Z" fill="black"/>
<path d="M200 169.5C200 143.819 220.819 123 246.5 123H319C347.719 123 371 146.281 371 175V216H246.5C220.819 216 200 195.181 200 169.5Z" fill="black"/>
</svg>
